<svg xmlns="http://www.w3.org/2000/svg" xmlns:xlink="http://www.w3.org/1999/xlink" width="1080" zoomAndPan="magnify" viewBox="0 0 810 1012.49997" height="1350" preserveAspectRatio="xMidYMid meet" version="1.0"><defs><g/><clipPath id="30a23241db"><path d="M 0.199219 0 L 809.800781 0 L 809.800781 1012 L 0.199219 1012 Z M 0.199219 0 " clip-rule="nonzero"/></clipPath></defs><g clip-path="url(#30a23241db)"><path fill="#ffffff" d="M 0.199219 0 L 809.800781 0 L 809.800781 1012 L 0.199219 1012 Z M 0.199219 0 " fill-opacity="1" fill-rule="nonzero"/><path fill="#000000" d="M 0.199219 0 L 809.800781 0 L 809.800781 1012 L 0.199219 1012 Z M 0.199219 0 " fill-opacity="1" fill-rule="nonzero"/></g><g fill="#d9d9d9" fill-opacity="1"><g transform="translate(158.143072, 580.588248)"><g><path d="M 66.203125 2.765625 C 55.160156 2.765625 45.40625 0.726562 36.9375 -3.34375 C 28.46875 -7.414062 21.800781 -13.226562 16.9375 -20.78125 C 12.082031 -28.332031 9.390625 -37.234375 8.859375 -47.484375 L 37.234375 -47.484375 C 38.285156 -39.203125 41.140625 -32.796875 45.796875 -28.265625 C 50.460938 -23.734375 57.394531 -21.46875 66.59375 -21.46875 C 74.738281 -21.46875 81.007812 -23.601562 85.40625 -27.875 C 89.800781 -32.144531 92 -37.890625 92 -45.109375 C 92 -52.859375 89.335938 -58.503906 84.015625 -62.046875 C 78.703125 -65.597656 71.382812 -67.375 62.0625 -67.375 L 53 -67.375 L 53 -90.4375 L 61.078125 -90.4375 C 67.515625 -90.4375 72.929688 -92.140625 77.328125 -95.546875 C 81.722656 -98.960938 83.921875 -103.820312 83.921875 -110.125 C 83.921875 -115.78125 82.179688 -120.28125 78.703125 -123.625 C 75.222656 -126.976562 70.203125 -128.65625 63.640625 -128.65625 C 57.460938 -128.65625 52.304688 -126.910156 48.171875 -123.421875 C 44.035156 -119.941406 41.441406 -114.328125 40.390625 -106.578125 L 14.375 -106.578125 C 14.90625 -115.910156 17.335938 -124.054688 21.671875 -131.015625 C 26.003906 -137.972656 31.816406 -143.359375 39.109375 -147.171875 C 46.398438 -150.984375 54.640625 -152.890625 63.828125 -152.890625 C 73.421875 -152.890625 81.765625 -151.113281 88.859375 -147.5625 C 95.953125 -144.019531 101.46875 -139.191406 105.40625 -133.078125 C 109.34375 -126.972656 111.3125 -119.984375 111.3125 -112.109375 C 111.3125 -104.617188 109.304688 -98.046875 105.296875 -92.390625 C 101.296875 -86.742188 95.816406 -83.203125 88.859375 -81.765625 C 99.097656 -80.578125 106.910156 -76.46875 112.296875 -69.4375 C 117.679688 -62.414062 120.375 -54.175781 120.375 -44.71875 C 120.375 -35.394531 118.070312 -27.15625 113.46875 -20 C 108.875 -12.84375 102.539062 -7.257812 94.46875 -3.25 C 86.394531 0.757812 76.972656 2.765625 66.203125 2.765625 Z M 66.203125 2.765625 "/></g></g></g><g fill="#d9d9d9" fill-opacity="1"><g transform="translate(288.56362, 580.588248)"><g><path d="M 35.46875 0 L 1.765625 0 L 51.8125 -75.0625 L 1.765625 -150.328125 L 35.65625 -150.328125 L 71.125 -94.375 L 106.78125 -150.328125 L 140.671875 -150.328125 L 90.625 -75.0625 L 140.671875 0 L 106.984375 0 L 71.3125 -53.78125 Z M 35.46875 0 "/></g></g></g><g fill="#d9d9d9" fill-opacity="1"><g transform="translate(431.00176, 580.588248)"><g><path d="M 76.046875 0 L 47.671875 0 L 47.671875 -115.640625 C 42.941406 -109.597656 37.03125 -104.472656 29.9375 -100.265625 C 22.851562 -96.066406 15.109375 -93.3125 6.703125 -92 L 6.703125 -118.203125 C 16.679688 -120.179688 25.25 -124.125 32.40625 -130.03125 C 39.5625 -135.9375 44.914062 -142.703125 48.46875 -150.328125 L 76.046875 -150.328125 Z M 76.046875 0 "/></g></g></g><g fill="#d9d9d9" fill-opacity="1"><g transform="translate(519.853202, 580.588248)"><g><path d="M 66.390625 2.765625 C 55.097656 2.765625 45.3125 0.101562 37.03125 -5.21875 C 28.757812 -10.539062 22.390625 -18.945312 17.921875 -30.4375 C 13.460938 -41.925781 11.234375 -57 11.234375 -75.65625 C 11.234375 -94.039062 13.429688 -108.910156 17.828125 -120.265625 C 22.234375 -131.628906 28.503906 -139.9375 36.640625 -145.1875 C 44.785156 -150.445312 54.441406 -153.078125 65.609375 -153.078125 C 77.035156 -153.078125 86.851562 -150.414062 95.0625 -145.09375 C 103.269531 -139.78125 109.601562 -131.375 114.0625 -119.875 C 118.53125 -108.382812 120.765625 -93.316406 120.765625 -74.671875 C 120.765625 -56.410156 118.566406 -41.566406 114.171875 -30.140625 C 109.773438 -18.710938 103.535156 -10.367188 95.453125 -5.109375 C 87.378906 0.140625 77.691406 2.765625 66.390625 2.765625 Z M 65.796875 -22.65625 C 71.054688 -22.65625 75.6875 -24.195312 79.6875 -27.28125 C 83.695312 -30.375 86.816406 -35.726562 89.046875 -43.34375 C 91.285156 -50.957031 92.40625 -61.53125 92.40625 -75.0625 C 92.40625 -88.59375 91.253906 -99.164062 88.953125 -106.78125 C 86.648438 -114.394531 83.460938 -119.742188 79.390625 -122.828125 C 75.328125 -125.921875 70.664062 -127.46875 65.40625 -127.46875 C 60.15625 -127.46875 55.59375 -125.890625 51.71875 -122.734375 C 47.84375 -119.585938 44.851562 -114.238281 42.75 -106.6875 C 40.644531 -99.132812 39.59375 -88.660156 39.59375 -75.265625 C 39.59375 -61.734375 40.675781 -51.125 42.84375 -43.4375 C 45.019531 -35.757812 48.078125 -30.375 52.015625 -27.28125 C 55.953125 -24.195312 60.546875 -22.65625 65.796875 -22.65625 Z M 65.796875 -22.65625 "/></g></g></g></svg>