<svg width="92" height="91" viewBox="0 0 92 91" fill="none" xmlns="http://www.w3.org/2000/svg">
<path d="M0 0H18.1818V18.1818H0V0ZM72.7273 0H90.9091V18.1818H72.7273V0ZM54.5455 18.1818H72.7273V36.3636H54.5455V18.1818ZM18.1818 18.1818H36.3636V36.3636H18.1818V18.1818ZM36.3636 36.3636H54.5455V54.5455H36.3636V36.3636Z" fill="#DFFF5C"/>
<path d="M0 0H18.1818V18.1818H0V0ZM72.7273 0H90.9091V18.1818H72.7273V0ZM54.5455 18.1818H72.7273V36.3636H54.5455V18.1818ZM18.1818 18.1818H36.3636V36.3636H18.1818V18.1818ZM36.3636 36.3636H54.5455V54.5455H36.3636V36.3636Z" fill="#DFFF5C"/>
<path d="M91.3992 90.6364L73.2174 90.6364L73.2174 72.4545L91.3992 72.4545L91.3992 90.6364ZM18.6719 90.6363L0.490074 90.6363L0.490076 72.4545L18.6719 72.4545L18.6719 90.6363ZM36.8537 72.4545L18.6719 72.4545L18.6719 54.2727L36.8537 54.2727L36.8537 72.4545ZM73.2174 72.4545L55.0355 72.4545L55.0355 54.2727L73.2174 54.2727L73.2174 72.4545ZM55.0355 54.2727L36.8537 54.2727L36.8537 36.0909L55.0355 36.0909L55.0355 54.2727Z" fill="#DFFF5C"/>
<path d="M91.3992 90.6364L73.2174 90.6364L73.2174 72.4545L91.3992 72.4545L91.3992 90.6364ZM18.6719 90.6363L0.490074 90.6363L0.490076 72.4545L18.6719 72.4545L18.6719 90.6363ZM36.8537 72.4545L18.6719 72.4545L18.6719 54.2727L36.8537 54.2727L36.8537 72.4545ZM73.2174 72.4545L55.0355 72.4545L55.0355 54.2727L73.2174 54.2727L73.2174 72.4545ZM55.0355 54.2727L36.8537 54.2727L36.8537 36.0909L55.0355 36.0909L55.0355 54.2727Z" fill="#DFFF5C"/>
</svg>
